<svg id="visual" viewBox="0 0 900 600" width="900" height="600" xmlns="http://www.w3.org/2000/svg" xmlns:xlink="http://www.w3.org/1999/xlink" version="1.1"><g stroke-width="1" stroke-linejoin="bevel"><path d="M415 281L375 232L332 234Z" fill="#277297" stroke="#277297"></path><path d="M332 234L276 328L415 281Z" fill="#15384f" stroke="#15384f"></path><path d="M276 328L367 380L415 281Z" fill="#205a7a" stroke="#205a7a"></path><path d="M276 328L320 418L367 380Z" fill="#081a28" stroke="#081a28"></path><path d="M513 435L489 332L367 380Z" fill="#0c2435" stroke="#0c2435"></path><path d="M367 380L489 332L415 281Z" fill="#246688" stroke="#246688"></path><path d="M415 281L539 214L375 232Z" fill="#205a7a" stroke="#205a7a"></path><path d="M222 174L195 335L276 328Z" fill="#297ea6" stroke="#297ea6"></path><path d="M276 328L195 335L320 418Z" fill="#15384f" stroke="#15384f"></path><path d="M280 61L222 174L332 234Z" fill="#00101c" stroke="#00101c"></path><path d="M332 234L222 174L276 328Z" fill="#15384f" stroke="#15384f"></path><path d="M489 332L539 214L415 281Z" fill="#19435d" stroke="#19435d"></path><path d="M375 232L387 68L332 234Z" fill="#1d4e6b" stroke="#1d4e6b"></path><path d="M320 418L428 488L367 380Z" fill="#19435d" stroke="#19435d"></path><path d="M602 336L579 188L539 214Z" fill="#00101c" stroke="#00101c"></path><path d="M428 488L513 435L367 380Z" fill="#112e42" stroke="#112e42"></path><path d="M539 214L387 68L375 232Z" fill="#00101c" stroke="#00101c"></path><path d="M222 174L122 301L195 335Z" fill="#112e42" stroke="#112e42"></path><path d="M195 335L162 436L320 418Z" fill="#0c2435" stroke="#0c2435"></path><path d="M320 418L296 538L428 488Z" fill="#112e42" stroke="#112e42"></path><path d="M387 68L280 61L332 234Z" fill="#00101c" stroke="#00101c"></path><path d="M222 174L112 186L122 301Z" fill="#297ea6" stroke="#297ea6"></path><path d="M126 401L162 436L195 335Z" fill="#19435d" stroke="#19435d"></path><path d="M602 336L539 214L489 332Z" fill="#19435d" stroke="#19435d"></path><path d="M539 214L535 79L387 68Z" fill="#205a7a" stroke="#205a7a"></path><path d="M595 403L602 336L489 332Z" fill="#112e42" stroke="#112e42"></path><path d="M162 436L177 467L320 418Z" fill="#00101c" stroke="#00101c"></path><path d="M122 301L126 401L195 335Z" fill="#00101c" stroke="#00101c"></path><path d="M162 436L131 521L177 467Z" fill="#297ea6" stroke="#297ea6"></path><path d="M177 467L296 538L320 418Z" fill="#1d4e6b" stroke="#1d4e6b"></path><path d="M134 131L112 186L222 174Z" fill="#112e42" stroke="#112e42"></path><path d="M122 301L0 404L126 401Z" fill="#205a7a" stroke="#205a7a"></path><path d="M537 490L595 403L513 435Z" fill="#277297" stroke="#277297"></path><path d="M513 435L595 403L489 332Z" fill="#15384f" stroke="#15384f"></path><path d="M428 488L537 490L513 435Z" fill="#246688" stroke="#246688"></path><path d="M521 600L537 490L428 488Z" fill="#081a28" stroke="#081a28"></path><path d="M280 61L208 61L222 174Z" fill="#081a28" stroke="#081a28"></path><path d="M208 61L134 131L222 174Z" fill="#112e42" stroke="#112e42"></path><path d="M573 112L535 79L539 214Z" fill="#112e42" stroke="#112e42"></path><path d="M706 89L573 112L579 188Z" fill="#205a7a" stroke="#205a7a"></path><path d="M579 188L573 112L539 214Z" fill="#081a28" stroke="#081a28"></path><path d="M535 79L421 0L387 68Z" fill="#19435d" stroke="#19435d"></path><path d="M387 68L271 0L280 61Z" fill="#15384f" stroke="#15384f"></path><path d="M280 61L271 0L208 61Z" fill="#00101c" stroke="#00101c"></path><path d="M421 0L271 0L387 68Z" fill="#0c2435" stroke="#0c2435"></path><path d="M208 61L83 0L134 131Z" fill="#15384f" stroke="#15384f"></path><path d="M296 538L404 600L428 488Z" fill="#112e42" stroke="#112e42"></path><path d="M195 600L282 600L296 538Z" fill="#277297" stroke="#277297"></path><path d="M296 538L282 600L404 600Z" fill="#15384f" stroke="#15384f"></path><path d="M521 600L592 508L537 490Z" fill="#19435d" stroke="#19435d"></path><path d="M537 490L592 508L595 403Z" fill="#19435d" stroke="#19435d"></path><path d="M678 429L692 277L602 336Z" fill="#15384f" stroke="#15384f"></path><path d="M126 401L131 521L162 436Z" fill="#15384f" stroke="#15384f"></path><path d="M177 467L195 600L296 538Z" fill="#1d4e6b" stroke="#1d4e6b"></path><path d="M0 485L131 521L126 401Z" fill="#19435d" stroke="#19435d"></path><path d="M271 0L205 0L208 61Z" fill="#205a7a" stroke="#205a7a"></path><path d="M594 0L515 0L535 79Z" fill="#15384f" stroke="#15384f"></path><path d="M535 79L515 0L421 0Z" fill="#0c2435" stroke="#0c2435"></path><path d="M678 429L602 336L595 403Z" fill="#205a7a" stroke="#205a7a"></path><path d="M602 336L692 277L579 188Z" fill="#19435d" stroke="#19435d"></path><path d="M573 112L594 0L535 79Z" fill="#00101c" stroke="#00101c"></path><path d="M692 277L693 214L579 188Z" fill="#19435d" stroke="#19435d"></path><path d="M131 521L195 600L177 467Z" fill="#1d4e6b" stroke="#1d4e6b"></path><path d="M592 508L678 429L595 403Z" fill="#081a28" stroke="#081a28"></path><path d="M404 600L521 600L428 488Z" fill="#205a7a" stroke="#205a7a"></path><path d="M592 508L686 532L678 429Z" fill="#1d4e6b" stroke="#1d4e6b"></path><path d="M0 185L0 280L112 186Z" fill="#00101c" stroke="#00101c"></path><path d="M112 186L0 280L122 301Z" fill="#277297" stroke="#277297"></path><path d="M0 185L112 186L0 101Z" fill="#081a28" stroke="#081a28"></path><path d="M0 101L112 186L134 131Z" fill="#1d4e6b" stroke="#1d4e6b"></path><path d="M706 89L594 0L573 112Z" fill="#0c2435" stroke="#0c2435"></path><path d="M0 280L0 404L122 301Z" fill="#1d4e6b" stroke="#1d4e6b"></path><path d="M131 521L60 600L195 600Z" fill="#00101c" stroke="#00101c"></path><path d="M205 0L83 0L208 61Z" fill="#205a7a" stroke="#205a7a"></path><path d="M521 600L608 600L592 508Z" fill="#112e42" stroke="#112e42"></path><path d="M83 0L0 101L134 131Z" fill="#081a28" stroke="#081a28"></path><path d="M693 214L706 89L579 188Z" fill="#205a7a" stroke="#205a7a"></path><path d="M760 215L706 89L693 214Z" fill="#081a28" stroke="#081a28"></path><path d="M0 404L0 485L126 401Z" fill="#00101c" stroke="#00101c"></path><path d="M608 600L686 532L592 508Z" fill="#15384f" stroke="#15384f"></path><path d="M817 326L760 215L692 277Z" fill="#112e42" stroke="#112e42"></path><path d="M692 277L760 215L693 214Z" fill="#19435d" stroke="#19435d"></path><path d="M817 326L692 277L678 429Z" fill="#277297" stroke="#277297"></path><path d="M0 485L60 600L131 521Z" fill="#0c2435" stroke="#0c2435"></path><path d="M819 73L701 0L706 89Z" fill="#297ea6" stroke="#297ea6"></path><path d="M706 89L701 0L594 0Z" fill="#297ea6" stroke="#297ea6"></path><path d="M83 0L0 0L0 101Z" fill="#246688" stroke="#246688"></path><path d="M822 386L817 326L678 429Z" fill="#246688" stroke="#246688"></path><path d="M760 215L819 73L706 89Z" fill="#246688" stroke="#246688"></path><path d="M0 485L0 600L60 600Z" fill="#277297" stroke="#277297"></path><path d="M812 492L822 386L678 429Z" fill="#277297" stroke="#277297"></path><path d="M608 600L717 600L686 532Z" fill="#297ea6" stroke="#297ea6"></path><path d="M686 532L812 492L678 429Z" fill="#1d4e6b" stroke="#1d4e6b"></path><path d="M717 600L812 492L686 532Z" fill="#1d4e6b" stroke="#1d4e6b"></path><path d="M900 119L819 73L760 215Z" fill="#0c2435" stroke="#0c2435"></path><path d="M900 270L760 215L817 326Z" fill="#0c2435" stroke="#0c2435"></path><path d="M900 366L817 326L822 386Z" fill="#15384f" stroke="#15384f"></path><path d="M900 366L900 270L817 326Z" fill="#246688" stroke="#246688"></path><path d="M717 600L804 600L812 492Z" fill="#277297" stroke="#277297"></path><path d="M900 484L900 366L822 386Z" fill="#277297" stroke="#277297"></path><path d="M900 270L900 222L760 215Z" fill="#112e42" stroke="#112e42"></path><path d="M900 484L822 386L812 492Z" fill="#205a7a" stroke="#205a7a"></path><path d="M900 0L826 0L819 73Z" fill="#277297" stroke="#277297"></path><path d="M819 73L826 0L701 0Z" fill="#205a7a" stroke="#205a7a"></path><path d="M900 222L900 119L760 215Z" fill="#205a7a" stroke="#205a7a"></path><path d="M900 600L900 484L812 492Z" fill="#246688" stroke="#246688"></path><path d="M900 119L900 0L819 73Z" fill="#19435d" stroke="#19435d"></path><path d="M804 600L900 600L812 492Z" fill="#205a7a" stroke="#205a7a"></path></g></svg>